<?xml version="1.0" encoding="UTF-8"?>
<svg version="1.1" xmlns="http://www.w3.org/2000/svg" width="512" height="512">
<path d="M0 0 C0.62261719 0.43957031 1.24523437 0.87914062 1.88671875 1.33203125 C11.66084672 8.95365463 18.47562488 20.93376131 21 33 C21.07911543 34.65989282 21.10778885 36.3226287 21.09765625 37.984375 C21.09443359 38.91894531 21.09121094 39.85351562 21.08789062 40.81640625 C21.07951172 41.78449219 21.07113281 42.75257812 21.0625 43.75 C21.05798828 44.73355469 21.05347656 45.71710938 21.04882812 46.73046875 C21.03706483 49.15370791 21.02062684 51.57682273 21 54 C22.51980469 53.91298828 22.51980469 53.91298828 24.0703125 53.82421875 C36.25801534 53.32329187 36.25801534 53.32329187 39.8125 55.875 C44.86283555 63.08976507 44.69884151 73.74383222 45.75233459 82.29042053 C45.91667997 83.59935144 46.08102535 84.90828236 46.25035089 86.25687784 C46.70327455 89.86500467 47.15162648 93.47368664 47.59919178 97.0824815 C48.08388788 100.98400852 48.57287578 104.88499794 49.06132507 108.78605652 C50.01625781 116.41812317 50.9672919 124.05067075 51.91704089 131.68338401 C53.02392823 140.57755476 54.13490696 149.471213 55.24610119 158.36484652 C57.22893769 174.23578485 59.20838996 190.10714338 61.18579102 205.97875977 C63.10334478 221.36996563 65.02278897 236.76093396 66.94458008 252.15161133 C67.06296905 253.09973405 67.18135802 254.04785677 67.30333454 255.02471048 C67.77925546 258.83609807 68.2551835 262.64748478 68.73112244 266.45887012 C70.78564036 282.9120565 72.83876019 299.36541739 74.89154872 315.81881961 C75.22345213 318.47903523 75.55537806 321.13924803 75.8873055 323.79946065 C77.14817723 333.90503761 78.40831016 344.01070629 79.66742134 354.11650276 C80.04891221 357.17823565 80.43067654 360.23993425 80.81269455 363.30160141 C81.33401774 367.47983847 81.8543855 371.65819397 82.37464905 375.83656311 C82.5260099 377.04862979 82.67737075 378.26069648 82.83331829 379.50949246 C85.16139662 398.22869635 85.16139662 398.22869635 85.3125 404.75 C85.36857422 406.35101563 85.36857422 406.35101563 85.42578125 407.984375 C84.88815793 411.79212918 83.7369089 413.33302915 81 416 C76.24421789 418.50571715 71.05303186 418.7555725 65.79370117 419.32861328 C64.76884613 419.44594818 63.74399109 419.56328308 62.68807983 419.68417358 C59.3070972 420.06957794 55.92508366 420.44498562 52.54296875 420.8203125 C50.19591928 421.0858818 47.8489403 421.35207468 45.50202942 421.61886597 C39.32959872 422.31883632 33.1562469 423.01033111 26.98266602 423.70007324 C20.68122589 424.40561564 14.38069242 425.11915846 8.08007812 425.83203125 C-4.27907306 427.22919175 -16.63921196 428.61740123 -29 430 C-29.06469482 430.66531738 -29.12938965 431.33063477 -29.19604492 432.01611328 C-29.50428665 435.05513859 -29.84555916 438.08958934 -30.1875 441.125 C-30.28869141 442.17171875 -30.38988281 443.2184375 -30.49414062 444.296875 C-31.25272779 450.77561945 -32.15103898 454.52055545 -37 459 C-43.65330178 462.32665089 -54.34203861 459.67187786 -61.49145508 458.80664062 C-63.12799294 458.616446 -63.12799294 458.616446 -64.79759216 458.42240906 C-67.1478683 458.14851293 -69.49781485 457.87177627 -71.84745216 457.592453 C-75.5774258 457.14937276 -79.30828292 456.71455714 -83.03947449 456.28186035 C-92.30532484 455.20581166 -101.569755 454.11776018 -110.83380127 453.02630615 C-118.67211992 452.10297952 -126.51116255 451.18620451 -134.35129356 450.27836609 C-138.00659718 449.85253777 -141.66071862 449.41742919 -145.31489563 448.98205566 C-164.20338616 446.76393229 -181.38935943 447.15965832 -200.25633812 449.407547 C-203.98560051 449.85180684 -207.71590734 450.28614754 -211.4466095 450.71813965 C-218.69054954 451.55867549 -225.93322033 452.40977692 -233.17566681 453.26305389 C-243.03374315 454.42410085 -252.89260597 455.57817917 -262.75274086 456.72163391 C-266.41305711 457.14839047 -270.07239325 457.58292428 -273.73173523 458.01794434 C-275.99063125 458.28119122 -278.24956585 458.54410733 -280.50854492 458.80664062 C-281.51298645 458.92820023 -282.51742798 459.04975983 -283.55230713 459.17500305 C-302.00472375 461.29049789 -302.00472375 461.29049789 -306.5625 458.0625 C-312.71602314 450.33115041 -311.58551819 438.50035927 -312 429 C-313.28446014 429.01984451 -314.56892029 429.03968903 -315.89230347 429.06013489 C-320.88830489 429.05720155 -325.76391359 428.60756495 -330.72314453 428.0378418 C-331.6495575 427.9353714 -332.57597046 427.832901 -333.53045654 427.72732544 C-336.56520554 427.39000363 -339.59903042 427.04512189 -342.6328125 426.69921875 C-344.7555092 426.45965457 -346.87822062 426.22022082 -349.00094604 425.98091125 C-353.43774117 425.47929472 -357.8740306 424.97344141 -362.31005859 424.46508789 C-367.98578802 423.81539732 -373.66305632 423.18039518 -379.34085274 422.54905987 C-383.72037663 422.0597337 -388.09873694 421.56055693 -392.47683334 421.0586338 C-394.56954233 420.82030805 -396.66265581 420.58550593 -398.75616837 420.35434532 C-401.68394601 420.02998772 -404.60982588 419.69186077 -407.53564453 419.3503418 C-408.82319138 419.21223335 -408.82319138 419.21223335 -410.13674927 419.07133484 C-415.83363494 418.386613 -421.48109359 417.56430753 -425.67575228 413.29404372 C-430.21600139 405.42880083 -426.5702236 391.57769134 -425.4569397 382.92485046 C-425.28851936 381.56633757 -425.12085332 380.20773099 -424.95386541 378.84904128 C-424.49795615 375.1573399 -424.03146404 371.46704546 -423.56305552 367.77691209 C-423.05778281 363.78113604 -422.56254072 359.78411477 -422.06599426 355.7872467 C-421.09389483 347.97530721 -420.1126556 340.16454232 -419.12823774 332.35414662 C-417.98113075 323.25025299 -416.84309968 314.14523167 -415.70539038 305.04015968 C-413.67493912 288.79305163 -411.63618715 272.54699605 -409.59277344 256.30151367 C-407.61158298 240.55066526 -405.63644446 224.79907344 -403.66796875 209.04663086 C-403.54663274 208.07566307 -403.42529673 207.10469528 -403.30028386 206.10430422 C-403.17915421 205.13498454 -403.05802457 204.16566486 -402.93322432 203.16697186 C-400.68902509 185.20854585 -398.43915581 167.25083413 -396.18664981 149.29344827 C-395.39130416 142.95176685 -394.59763425 136.60987698 -393.80449295 130.26791954 C-392.83786947 122.53971308 -391.86797786 114.81192448 -390.89404131 107.08463611 C-390.39749847 103.14454337 -389.90228974 99.20429578 -389.41080284 95.26356888 C-388.96044493 91.65300619 -388.5060817 88.04297049 -388.04857759 84.43330655 C-387.8066295 82.51630899 -387.56885839 80.59878565 -387.33126032 78.68124408 C-384.94309299 59.94309299 -384.94309299 59.94309299 -380 55 C-371.72242763 50.86121382 -357.8467743 54.92038773 -348.87084961 56.01953125 C-347.05616126 56.23686212 -345.24140079 56.45359154 -343.42657471 56.66976929 C-339.53577774 57.13436149 -335.64547605 57.60284097 -331.75550652 58.0743103 C-325.5883 58.82142204 -319.41982985 59.55770643 -313.25111389 60.29223633 C-296.81966276 62.25045183 -280.38986903 64.22242773 -263.96092755 66.20158291 C-253.16000978 67.5026937 -242.35839326 68.79765322 -231.55538183 70.08127499 C-225.44015769 70.80838483 -219.32618302 71.54501056 -213.21300018 72.28907776 C-209.38672005 72.7525318 -205.55941156 73.20701641 -201.73178101 73.65916824 C-199.97636013 73.86830619 -198.22135574 74.08098026 -196.46685982 74.29774094 C-180.33560306 76.28706275 -164.62683476 76.6867698 -148.4758606 74.65345764 C-147.3217034 74.51007808 -147.3217034 74.51007808 -146.14422989 74.36380196 C-145.35671215 74.26566137 -144.56919441 74.16752079 -143.7578125 74.06640625 C-142.08928468 73.86616671 -140.4206521 73.66679835 -138.75192261 73.46824646 C-135.29751115 73.05511906 -131.84401078 72.63530988 -128.39111328 72.2097168 C-123.96962729 71.66476829 -119.54683165 71.1315199 -115.12341499 70.60249424 C-110.87610021 70.09415617 -106.6294123 69.58067808 -102.3828125 69.06640625 C-101.57920414 68.969415 -100.77559578 68.87242374 -99.94763565 68.77249336 C-97.67974166 68.49770863 -95.41232065 68.21932669 -93.14501953 67.93969727 C-91.85806183 67.78203384 -90.57110413 67.62437042 -89.24514771 67.46192932 C-86.75296642 67.10718072 -84.41577519 66.68622481 -82 66 C-82.30744141 65.11248047 -82.30744141 65.11248047 -82.62109375 64.20703125 C-82.89050781 63.41683594 -83.15992188 62.62664062 -83.4375 61.8125 C-83.70433594 61.03519531 -83.97117187 60.25789063 -84.24609375 59.45703125 C-88.38481711 45.96865304 -86.66326138 30.86418579 -80.375 18.375 C-72.35534253 4.61850835 -60.20902071 -5.11077775 -44.8125 -9.3125 C-28.91216887 -12.23702519 -13.24274773 -9.47274027 0 0 Z " fill="#FEDF81" transform="translate(427,31)"/>
<path d="M0 0 C1.93256818 0.22714557 3.86520256 0.45372844 5.79789734 0.67979431 C11.01677215 1.29184455 16.23469116 1.91171472 21.45246863 2.533041 C26.91583719 3.18224661 32.38005893 3.82418994 37.8441925 4.46691895 C48.17881354 5.68365919 58.51265588 6.90688617 68.84623128 8.13247156 C80.61592162 9.52806112 92.38646631 10.91637748 104.15708673 12.30409718 C128.35869177 15.15755595 152.55921488 18.02010251 176.7590332 20.88867188 C176.7590332 21.21867187 176.7590332 21.54867187 176.7590332 21.88867188 C167.25233204 23.90557997 157.63876907 24.86276515 147.98828125 25.89013672 C132.22503475 27.57109228 116.48338153 29.37684723 100.7590332 31.38867188 C84.41122255 33.47825095 68.04427666 35.34414123 51.6574707 37.1015625 C46.35512866 37.67324717 41.05609322 38.26997678 35.7590332 38.88867188 C34.77326294 39.00319702 33.78749268 39.11772217 32.77185059 39.23571777 C29.75783246 39.59287334 26.74665903 39.96841437 23.7355957 40.34960938 C22.81072357 40.45834381 21.88585144 40.56707825 20.93295288 40.67910767 C16.250646 41.29252291 12.57677856 41.87850801 8.7590332 44.88867188 C7.11097341 48.18479147 7.56799325 51.83015515 7.5715332 55.45117188 C7.5727417 56.73664917 7.5727417 56.73664917 7.57397461 58.0480957 C7.63155234 64.16431826 8.10936124 70.11177826 8.91113281 76.16992188 C9.66959989 81.92103582 10.18420498 87.66816049 10.6340332 93.45117188 C11.51731619 104.61391411 12.6269717 115.74909923 13.7590332 126.88867188 C14.91875231 138.32342889 16.0515349 149.75405698 16.96392822 161.21170044 C17.70526841 170.44541368 18.53057997 179.67114103 19.3684082 188.89648438 C19.4511776 189.80887753 19.53394699 190.72127068 19.61922455 191.6613121 C21.3504055 210.70538214 23.16294504 229.74159151 24.98012352 248.77759933 C25.36808111 252.84282902 25.75547775 256.90811216 26.14294434 260.97338867 C26.45764798 264.27458009 26.77239365 267.57576751 27.0871582 270.87695312 C27.16560943 271.6997621 27.24406065 272.52257107 27.32488918 273.37031364 C28.2132781 282.68672454 29.10345198 292.00296024 29.99731445 301.31884766 C30.72013882 308.85236729 31.43960777 316.38619923 32.15525317 323.92040431 C32.53050842 327.86959742 32.90742751 331.81861482 33.28855133 335.76724625 C33.64394962 339.44948303 33.99492437 343.13211518 34.34258652 346.81509018 C34.53022659 348.79068577 34.7225258 350.76583715 34.91500854 352.7409668 C35.54662539 359.48160127 35.93064266 366.11811553 35.7590332 372.88867188 C29.42827665 372.98648011 23.32189278 372.64865833 17.03588867 371.92651367 C16.10947571 371.82404327 15.18306274 371.72157288 14.22857666 371.61599731 C11.19382766 371.2786755 8.16000278 370.93379376 5.1262207 370.58789062 C3.003524 370.34832644 0.88081258 370.10889269 -1.24191284 369.86958313 C-5.67870797 369.36796659 -10.1149974 368.86211328 -14.55102539 368.35375977 C-20.22675482 367.70406919 -25.90402312 367.06906705 -31.58181953 366.43773174 C-35.96134343 365.94840557 -40.33970374 365.4492288 -44.71780014 364.94730568 C-46.81050913 364.70897992 -48.9036226 364.47417781 -50.99713516 364.2430172 C-53.92491281 363.91865959 -56.85079268 363.58053265 -59.77661133 363.23901367 C-61.06415817 363.10090523 -61.06415817 363.10090523 -62.37771606 362.96000671 C-68.07460173 362.27528488 -73.72206039 361.45297941 -77.91671908 357.18271559 C-82.45696818 349.31747271 -78.8111904 335.46636322 -77.69790649 326.81352234 C-77.52948616 325.45500945 -77.36182012 324.09640287 -77.19483221 322.73771316 C-76.73892294 319.04601177 -76.27243084 315.35571733 -75.80402231 311.66558397 C-75.29874961 307.66980791 -74.80350752 303.67278664 -74.30696106 299.67591858 C-73.33486162 291.86397909 -72.3536224 284.05321419 -71.36920454 276.2428185 C-70.22209755 267.13892487 -69.08406648 258.03390355 -67.94635718 248.92883155 C-65.91590592 232.6817235 -63.87715395 216.43566792 -61.83374023 200.19018555 C-59.85254978 184.43933713 -57.87741126 168.68774531 -55.90893555 152.93530273 C-55.78759953 151.96433494 -55.66626352 150.99336715 -55.54125066 149.99297609 C-55.42012101 149.02365641 -55.29899136 148.05433674 -55.17419112 147.05564374 C-52.92999189 129.09721772 -50.68012261 111.13950601 -48.4276166 93.18212014 C-47.63227096 86.84043872 -46.83860105 80.49854886 -46.04545975 74.15659142 C-45.07883627 66.42838495 -44.10894466 58.70059635 -43.13500811 50.97330799 C-42.63846527 47.03321524 -42.14325653 43.09296766 -41.65176964 39.15224075 C-41.20141172 35.54167806 -40.74704849 31.93164236 -40.28954439 28.32197843 C-40.0475963 26.40498086 -39.80982518 24.48745753 -39.57222712 22.56991595 C-37.18405979 3.83176487 -37.18405979 3.83176487 -32.2409668 -1.11132812 C-23.87689224 -5.2933654 -9.02000103 -1.08239539 0 0 Z " fill="#FFA000" transform="translate(79.240966796875,87.111328125)"/>
<path d="M0 0 C0.62261719 0.43957031 1.24523437 0.87914062 1.88671875 1.33203125 C11.71995438 8.99974533 18.35642936 20.91271291 21 33 C22.67751586 50.22838217 19.99405602 63.71704866 9.12109375 77.5703125 C2.43649116 85.22744475 -4.64314097 90.03229624 -14 94 C-14.80050781 94.34160156 -15.60101563 94.68320313 -16.42578125 95.03515625 C-27.47065946 99.02616266 -41.13568325 98.0915743 -52 94 C-53.73698733 93.15711145 -55.46644686 92.29861197 -57.18994141 91.4284668 C-58.09064362 90.9747319 -58.99134583 90.52099701 -59.91934204 90.05351257 C-60.60595917 89.70585342 -61.29257629 89.35819427 -62 89 C-62.59468582 89.59690643 -63.18937164 90.19381287 -63.80207825 90.80880737 C-69.4054923 96.43225428 -75.01130604 102.05329549 -80.61983204 107.67164421 C-83.50317632 110.56020818 -86.38558249 113.44969549 -89.26586914 116.34130859 C-92.04526649 119.13156719 -94.82709584 121.91937957 -97.61063194 124.70550919 C-98.67244221 125.76916785 -99.73337159 126.83370664 -100.79340553 127.89913559 C-102.27767608 129.39065947 -103.76504104 130.87903016 -105.25317383 132.36669922 C-106.09922684 133.21497284 -106.94527985 134.06324646 -107.81697083 134.93722534 C-111.88785467 138.78386016 -114.38042972 139.43840295 -119.7734375 139.32421875 C-123.08516591 138.84198461 -124.77769423 137.43064694 -127 135 C-128.25497957 131.2350613 -128.52064444 128.96991382 -128 125 C-123.32040014 118.26272814 -116.70446109 112.57373913 -110.91015625 106.8125 C-109.95587007 105.86008388 -109.00180812 104.90744305 -108.04795837 103.95458984 C-105.5629203 101.47333075 -103.07489204 98.99509209 -100.58618164 96.51751709 C-98.03672504 93.97837515 -95.49017312 91.43632354 -92.94335938 88.89453125 C-87.96504369 83.92687118 -82.98355629 78.96240314 -78 74 C-79.33254955 69.72844109 -79.33254955 69.72844109 -81.4375 65.8125 C-87.43319484 55.02024929 -87.45569067 41.51566558 -84.875 29.6875 C-80.93734059 16.21560043 -72.06266585 4.30740155 -60 -3 C-40.58132174 -13.358552 -18.22922712 -13.03964535 0 0 Z " fill="#F34336" transform="translate(427,31)"/>
<path d="M0 0 C-0.11505742 2.83404585 -0.24177725 5.66679619 -0.375 8.5 C-0.4059375 9.29148437 -0.436875 10.08296875 -0.46875 10.8984375 C-0.79247436 17.48083277 -1.15454891 23.72867558 -5.4375 29 C-12.11855626 33.84245356 -23.93014661 30.72911216 -31.60253906 29.82250977 C-32.70480835 29.69731964 -33.80707764 29.57212952 -34.94274902 29.44314575 C-38.551081 29.0318228 -42.1583308 28.61172502 -45.765625 28.19140625 C-48.28898323 27.90182473 -50.81240144 27.61276543 -53.33587646 27.32420349 C-58.60814221 26.72008825 -63.87995304 26.11222006 -69.15136719 25.50073242 C-76.56933834 24.6402509 -83.98824013 23.78801755 -91.40734529 22.9373771 C-97.19362198 22.27364918 -102.97963945 21.60766653 -108.765625 20.94140625 C-109.9926136 20.80012362 -111.2196022 20.65884098 -112.48377228 20.51327705 C-115.9609959 20.11230064 -119.43804817 19.70987375 -122.91503906 19.30688477 C-123.93857483 19.18892044 -124.9621106 19.07095612 -126.0166626 18.94941711 C-131.02300661 18.36753755 -136.01491449 17.74286369 -141 17 C-137.76690955 15.13178094 -135.02063983 14.59580035 -131.3215332 14.2097168 C-130.17136719 14.08567978 -129.02120117 13.96164276 -127.83618164 13.83384705 C-126.58699951 13.70691971 -125.33781738 13.57999237 -124.05078125 13.44921875 C-122.05244336 13.23618562 -120.05410598 13.02314759 -118.05579185 12.8098917 C-115.93320096 12.58476006 -113.8102539 12.36332068 -111.68716431 12.14294434 C-105.09431133 11.45822123 -98.50389386 10.75067419 -91.91338158 10.04383469 C-90.44796888 9.88675818 -88.98252607 9.72996229 -87.5170536 9.57344437 C-75.10084641 8.24703858 -62.70251943 6.80233515 -50.3125 5.25 C-8.24697983 0 -8.24697983 0 0 0 Z " fill="#FFA000" transform="translate(397,460)"/>
<path d="M0 0 C3.46406864 1.54606853 5.20838666 3.3491562 7.5625 6.3359375 C10.06712398 9.235312 13.04735105 11.57502936 16 14 C11.08397997 19.9249739 5.78019282 25.36517586 0.33203125 30.80078125 C-1.04291252 32.17716011 -1.04291252 32.17716011 -2.44563293 33.5813446 C-4.37286335 35.51003923 -6.30186536 37.4369389 -8.23217773 39.36254883 C-10.70362723 41.82826956 -13.17051618 44.29849685 -15.63611889 46.77006245 C-17.99847599 49.13689925 -20.36463249 51.49992207 -22.73046875 53.86328125 C-24.05705757 55.19290642 -24.05705757 55.19290642 -25.41044617 56.5493927 C-26.23172501 57.36751938 -27.05300385 58.18564606 -27.89916992 59.02856445 C-28.62053635 59.74913528 -29.34190277 60.46970612 -30.08512878 61.21211243 C-34.04146896 64.90609005 -36.57422591 65.43429978 -41.7734375 65.32421875 C-45.08516591 64.84198461 -46.77769423 63.43064694 -49 61 C-50.25497957 57.2350613 -50.52064444 54.96991382 -50 51 C-45.32040014 44.26272814 -38.70446109 38.57373913 -32.91015625 32.8125 C-31.95587007 31.86008388 -31.00180812 30.90744305 -30.04795837 29.95458984 C-27.5629203 27.47333075 -25.07489204 24.99509209 -22.58618164 22.51751709 C-20.03672504 19.97837515 -17.49017312 17.43632354 -14.94335938 14.89453125 C-9.96504369 9.92687118 -4.98355629 4.96240314 0 0 Z " fill="#465A64" transform="translate(349,105)"/>
</svg>
